<svg xmlns="http://www.w3.org/2000/svg" xmlns:xlink="http://www.w3.org/1999/xlink" viewBox="0 0 224.5 177.6">
  <defs>
    <radialGradient id="radial-gradient" cx="112.25" cy="-6092.6" r="101.21" gradientTransform="matrix(1, 0, 0, -1, 0, -6003.8)" gradientUnits="userSpaceOnUse">
      <stop offset="0" stop-color="#30a7d1"/>
      <stop offset="0.22" stop-color="#2da2cf"/>
      <stop offset="0.56" stop-color="#2794c8"/>
      <stop offset="0.97" stop-color="#1f7fbe"/>
      <stop offset="1" stop-color="#1f7ebd"/>
    </radialGradient>
  </defs>
  <title>american</title>
  <g id="Layer_2" data-name="Layer 2">
    <g id="Layer_1-2" data-name="Layer 1">
      <g>
        <path d="M224.5,167.1A10.5,10.5,0,0,1,214,177.6H10.5A10.5,10.5,0,0,1,0,167.1V10.5A10.5,10.5,0,0,1,10.5,0H214a10.5,10.5,0,0,1,10.5,10.5Z" style="fill: url(#radial-gradient)"/>
        <path d="M45.5,73.8l-3-7.5-3,7.5m72.7-3a3.79,3.79,0,0,1-2.2.4h-5.4V67H110a4.45,4.45,0,0,1,2.1.3,2.23,2.23,0,0,1,.1,3.5Zm38.3,3-3.1-7.5-3,7.5ZM79.1,81.9H74.6V67.2L68.2,81.9H64.3L57.9,67.2V81.9h-9l-1.7-4.2H37.9l-1.7,4.2H31.4l7.9-18.7h6.6l7.5,17.7V63.1h7.2l5.8,12.7,5.3-12.7h7.4V81.9Zm18,0H82.3V63.1H97.1V67H86.8v3.4H96.9v3.8H86.8v3.7H97.1ZM118,68.2a5.38,5.38,0,0,1-3.1,5,4.84,4.84,0,0,1,2.2,1.6,5.57,5.57,0,0,1,.7,3.4v3.7h-4.5V79.5c0-1.1.1-2.8-.7-3.6-.6-.7-1.6-.8-3.2-.8h-4.7v6.8h-4.4V63.1h10.2c2.3,0,3.9.1,5.4.9A4.84,4.84,0,0,1,118,68.2Zm7,13.7h-4.5V63.1H125Zm52.3,0H171l-8.4-14.1V81.9h-9l-1.7-4.2h-9.2L141,81.9h-5.2c-2.1,0-4.9-.5-6.4-2.1s-2.4-3.7-2.4-7.1c0-2.8.5-5.3,2.4-7.3,1.4-1.5,3.7-2.2,6.7-2.2h4.3v4h-4.2c-1.6,0-2.5.2-3.4,1.1a6,6,0,0,0-1.3,4.2,6.8,6.8,0,0,0,1.2,4.4,4.45,4.45,0,0,0,3.1,1h2L144,63.2h6.6l7.5,17.7V63.1h6.7l7.8,13v-13h4.5V81.9ZM31.4,85.6H39l1.7-4.2h3.8l1.7,4.2H61.1V82.4l1.3,3.2h7.7l1.3-3.2v3.2h36.9V78.8h.7c.5,0,.6.1.6.9v5.9h19.1V84a15.17,15.17,0,0,0,7.1,1.6h8l1.7-4.2h3.8l1.7,4.2h15.5v-4l2.3,4h12.4V59.5H168.9v3.1l-1.7-3.1H154.6v3.1L153,59.5H136a15.55,15.55,0,0,0-7.4,1.5V59.5H116.9V61c-1.3-1.2-3-1.5-5-1.5H69l-2.9,6.7-3-6.7H49.6v3.1l-1.5-3.1H36.6L31.2,71.9l.2,13.7Z" style="fill: #fff"/>
        <path d="M189.4,99.4h-8.1a3.25,3.25,0,0,0-1.8.3,1.29,1.29,0,0,0-.6,1.3,1.41,1.41,0,0,0,1,1.4,4.42,4.42,0,0,0,1.7.2l2.4.1c2.4.1,4,.5,5,1.5a1,1,0,0,1,.4.5m0,7c-1.1,1.6-3.2,2.4-6,2.4h-8.5v-4h8.5a2.43,2.43,0,0,0,1.8-.5,1.66,1.66,0,0,0,.5-1.2,1.5,1.5,0,0,0-.5-1.2,2.2,2.2,0,0,0-1.6-.4c-4.1-.1-9.3.1-9.3-5.8,0-2.7,1.7-5.6,6.3-5.6h8.8V91.7h-8.2a9,9,0,0,0-5.5,1.5V91.7H163.6c-1.9,0-4.2.5-5.3,1.5V91.7H136.7v1.5c-1.7-1.3-4.6-1.5-6-1.5H116.4v1.5c-1.4-1.3-4.4-1.5-6.2-1.5H94.3l-3.7,4-3.4-4H63.4v26.1H86.8l3.8-4.1,3.5,4.1h14.4v-6.1h1.4a15.08,15.08,0,0,0,6.2-.9v7.1h11.8v-6.8h.6c.7,0,.8,0,.8.8v6h36.1a9.93,9.93,0,0,0,6-1.7v1.7h11.5a14.8,14.8,0,0,0,6.5-1.2v-5Zm-17.7-7.5c.9.9,1.3,2,1.3,4,0,4-2.5,5.9-6.9,5.9h-8.6v-4h8.6a2.43,2.43,0,0,0,1.8-.5,1.66,1.66,0,0,0,.5-1.2,1.5,1.5,0,0,0-.5-1.2,2.2,2.2,0,0,0-1.6-.4c-4.1-.1-9.3.1-9.3-5.8,0-2.7,1.7-5.6,6.3-5.6h8.9v4h-8.1a3.25,3.25,0,0,0-1.8.3,1.46,1.46,0,0,0-.7,1.3,1.41,1.41,0,0,0,1,1.4,4.42,4.42,0,0,0,1.7.2l2.4.1C169.1,102.8,170.7,103.2,171.7,104.2Zm-39.9-1.1a3.79,3.79,0,0,1-2.2.4h-5.4V99.3h5.4a4.45,4.45,0,0,1,2.1.3,1.75,1.75,0,0,1,.9,1.7A1.61,1.61,0,0,1,131.8,103.1Zm2.7,2.3a4.84,4.84,0,0,1,2.2,1.6,5.57,5.57,0,0,1,.7,3.4v3.7H133v-2.3c0-1.1.1-2.8-.7-3.7-.6-.7-1.6-.8-3.2-.8h-4.7v6.8H120V95.4h10.2c2.2,0,3.9.1,5.3.9a4.45,4.45,0,0,1,2.3,4.2A5.62,5.62,0,0,1,134.5,105.4Zm5.6-10h14.8v3.9H144.5v3.4h10.1v3.8H144.5v3.7h10.4v3.9H140.1ZM110.3,104h-5.7V99.2h5.8c1.6,0,2.7.7,2.7,2.3S112,104,110.3,104Zm-10.1,8.4-6.8-7.6,6.8-7.4Zm-17.6-2.2H71.7v-3.7h9.7v-3.8H71.7V99.3H82.8l4.8,5.5Zm35.2-8.6c0,5.2-3.8,6.3-7.7,6.3h-5.5v6.3H96L90.6,108l-5.7,6.2H67.4V95.5H85.2l5.4,6.1,5.6-6.1h14.1C113.8,95.4,117.8,96.4,117.8,101.6Z" style="fill: #fff"/>
      </g>
    </g>
  </g>
</svg>
