<svg xmlns="http://www.w3.org/2000/svg" xmlns:xlink="http://www.w3.org/1999/xlink" viewBox="0 0 224.5 177.6">
  <defs>
    <clipPath id="clip-path">
      <rect x="44.4" y="42.4" width="134.1" height="91.2" style="fill: none"/>
    </clipPath>
    <clipPath id="clip-path-2">
      <path d="M182.6,128.4A6.59,6.59,0,0,1,176,135H47a6.59,6.59,0,0,1-6.6-6.6V47.6A6.59,6.59,0,0,1,47,41H176a6.59,6.59,0,0,1,6.6,6.6Z" style="fill: none"/>
    </clipPath>
  </defs>
  <title>aura</title>
  <g id="Layer_2" data-name="Layer 2">
    <g id="Layer_1-2" data-name="Layer 1">
      <path d="M224.5,167.1A10.5,10.5,0,0,1,214,177.6H10.5A10.5,10.5,0,0,1,0,167.1V10.5A10.5,10.5,0,0,1,10.5,0H214a10.5,10.5,0,0,1,10.5,10.5Z" style="fill: #fcee21"/>
      <g style="clip-path: url(#clip-path)">
        <g style="clip-path: url(#clip-path-2)">
          <g>
            <polygon points="39.1 40.2 183.8 40.2 183.8 135.9 39.1 135.9 39.1 40.2" style="fill: #2e368f"/>
            <path d="M111.5,55.7A28.7,28.7,0,1,1,82.8,84.4a28.7,28.7,0,0,1,28.7-28.7Z" style="fill: #fcee21"/>
            <path d="M107.5,72.6c28.2,0,54.5,4.7,76.3,12.8v50.5H39.1V82.6c20.2-6.4,43.5-10,68.4-10Z" style="fill: #eb2227"/>
            <path d="M107.5,87.1c28.2,0,54.5,4.7,76.3,12.8V136H39.1V97.2c20.2-6.5,43.5-10.1,68.4-10.1Z" style="fill: #fcee21"/>
            <g>
              <path d="M69.5,118.3l11.1-15.5h4.1l11.9,15.5H92.2l-3.4-4.7H76.7l-3.2,4.7Zm8.4-6.4h9.8l-3-4.3c-.9-1.3-1.6-2.4-2.1-3.2a14.59,14.59,0,0,1-1.6,3Z" style="fill: #2e368f"/>
              <path d="M113,118.3v-1.6a10.47,10.47,0,0,1-6.7,1.9,13.42,13.42,0,0,1-3.5-.4,6.88,6.88,0,0,1-2.4-1,3.6,3.6,0,0,1-1.1-1.4,7.45,7.45,0,0,1-.2-1.8v-7h3.6v6.2a7.47,7.47,0,0,0,.2,2,2.44,2.44,0,0,0,1.4,1.2,7,7,0,0,0,2.7.4,9.48,9.48,0,0,0,3-.4,4.27,4.27,0,0,0,2-1.2,3.4,3.4,0,0,0,.6-2.2v-6h3.6v11.2H113Z" style="fill: #2e368f"/>
              <path d="M121.8,118.3V107.1H125v1.7a7.4,7.4,0,0,1,2.3-1.6,5.87,5.87,0,0,1,2.3-.4,12.42,12.42,0,0,1,3.7.6l-1.2,1.8a7.83,7.83,0,0,0-2.6-.4,4.64,4.64,0,0,0-2.1.4,2.8,2.8,0,0,0-1.3,1,4.28,4.28,0,0,0-.6,2.2v5.9Z" style="fill: #2e368f"/>
              <path d="M149,116.9a21.4,21.4,0,0,1-3.8,1.3,23.37,23.37,0,0,1-3.9.4,12.34,12.34,0,0,1-5.3-.9c-1.2-.6-1.9-1.4-1.9-2.3a2.08,2.08,0,0,1,.7-1.5,5.44,5.44,0,0,1,1.8-1.1,9.92,9.92,0,0,1,2.6-.6c.7-.1,1.8-.2,3.2-.3a51.12,51.12,0,0,0,6.4-.7v-.5a1.54,1.54,0,0,0-1-1.6,10.73,10.73,0,0,0-4.1-.6,10.88,10.88,0,0,0-3.7.5,3.32,3.32,0,0,0-1.8,1.7l-3.5-.3a3.68,3.68,0,0,1,1.6-1.9,7.47,7.47,0,0,1,3.1-1.1,23.26,23.26,0,0,1,4.8-.4,25.92,25.92,0,0,1,4.4.3,6.57,6.57,0,0,1,2.5.9,2.76,2.76,0,0,1,1.1,1.3,6.25,6.25,0,0,1,.2,1.8v2.5a20.21,20.21,0,0,0,.2,3.4,2.8,2.8,0,0,0,.9,1.3h-3.7A3.42,3.42,0,0,1,149,116.9Zm-.3-4.2a43.45,43.45,0,0,1-5.8.7,14.56,14.56,0,0,0-3.1.4,2.59,2.59,0,0,0-1.4.6,1.38,1.38,0,0,0-.5.9c0,.5.4.9,1.1,1.3a8.53,8.53,0,0,0,3.2.5,13.8,13.8,0,0,0,3.7-.5,6,6,0,0,0,2.4-1.3,2.71,2.71,0,0,0,.6-1.9v-.7Z" style="fill: #2e368f"/>
            </g>
          </g>
        </g>
      </g>
    </g>
  </g>
</svg>
