<svg xmlns="http://www.w3.org/2000/svg" viewBox="0 0 224.5 177.6">
  <title>bb</title>
  <g id="Layer_2" data-name="Layer 2">
    <g id="Layer_1-2" data-name="Layer 1">
      <path d="M224.5,167.1A10.5,10.5,0,0,1,214,177.6H10.5A10.5,10.5,0,0,1,0,167.1V10.5A10.5,10.5,0,0,1,10.5,0H214a10.5,10.5,0,0,1,10.5,10.5Z" style="fill: #fcee21"/>
      <path d="M20.1,121.7v11.2h8.6c2.1,0,7.2-.2,7.2-5.5,0-2.9-.9-4.9-4.3-5.3.4-.1.8-.2,1.1-.3l-12.6-.1Zm19.3,0L36,132.9h4.3l1.1-3.8H46l1.1,3.8h4.6l-3.4-11.2H44.2l1.2,4.8H42.1l1.1-4.8Zm13.2,0v11.2h3.7V121.7Zm3.8,0,4.7,11.2h5.1V121.7H62.5v5.1l-2.2-5.1Zm11.6,0c0,.8-.1,1.7-.1,2.7,0,5.2-.2,9,6.5,9,3.8,0,6-1.5,6-6.2H76.1c-.1,1.4-.1,3.6-1.7,3.6-1.8,0-2.1-1.1-2.1-6.4v-2.7Zm13.8,0a24.37,24.37,0,0,0-.1,2.7c0,4.6,0,9,6.7,9s6.7-4.5,6.7-9a24.37,24.37,0,0,0-.1-2.7H90.5c0,.8.1,1.6.1,2.7,0,4.5-.3,6.4-2.2,6.4s-2.2-1.9-2.2-6.4a22.62,22.62,0,0,1,.1-2.7Zm18.1,0v11.2h6.5c6.8,0,6.4-6.1,6.4-8.7a20.08,20.08,0,0,0-.1-2.5h-4.4a21.75,21.75,0,0,1,.1,2.6c0,4.3-.4,6-2.5,6h-1.7v-8.6Zm14.6,0a24.37,24.37,0,0,0-.1,2.7c0,4.6,0,9,6.7,9s6.7-4.4,6.7-9a24.37,24.37,0,0,0-.1-2.7h-4.5c0,.8.1,1.7.1,2.7,0,4.5-.3,6.4-2.2,6.4s-2.2-1.9-2.2-6.4a22.62,22.62,0,0,1,.1-2.7Zm17.8,0v11.2h8.6c2.1,0,7.2-.2,7.2-5.5,0-2.9-.9-4.9-4.3-5.3l1.2-.3-12.7-.1Zm17.2,0v11.2H154V121.7Zm8.2,0c-.2,1.1-.9,1.9-1.8,1.8h-1.2l4.1,9.4H166l1.1-3.8h4.6l1.1,3.8h10.4c2.9,0,5.8-.4,5.8-4.8,0-4.2-4.9-4.6-6.8-6.4h-5.9c1.2,3.9,8.1,4,8.1,6.6a1.69,1.69,0,0,1-1.9,1.9h-5.9l-2.6-8.6h-4.1l1.2,4.8h-3.3l1.1-4.8h-3.7l-3,9.7-3-6.7a3.3,3.3,0,0,0,3-2.9Zm32.8,0v11.2h4.4V121.7Zm6.9,0v11.2h9.5v-2.6h-5.1v-8.6Zm-171,2h.7c2.6,0,3.4,1.1,3.4,3,0,2.9-2.4,3-3.5,3H25.4v-5.9l1-.1Zm112.5.1H140c2.1,0,2.7,1.1,2.7,3,0,2.9-2,3-2.9,3h-2.3v-5.9l1.4-.1Z" style="fill: #0060a9"/>
      <path d="M32.6,121.7a4.24,4.24,0,0,0,2.8-4.3c0-4.5-3.1-5.4-6.7-5.4H20.1v9.8H32.6v-.1Zm10.4,0,.5-2.3.6,2.3h4.1l-1.8-6H41.2l-1.8,6Zm13.3,0v-.2l.1.2h4l-2.5-6H52.6v6Zm9.9,0v-6H62.5v6Zm6.2,0c.2-3.2.7-3.8,2-3.8,1.1,0,1.7.9,1.7,3.2h4.3c.2-3.8-1.9-5.8-6.1-5.8-5,0-6.1,2.6-6.3,6.4Zm13.9,0c.1-2.6.6-3.8,2.2-3.8s2,1.2,2.1,3.8h4.5c-.2-3.5-1.2-6.4-6.6-6.4s-6.4,2.9-6.6,6.4Zm17.9,0v-3.3H106c1.7,0,2.2,1.4,2.3,3.3h4.4c-.3-3.8-1.8-6-6.1-6H99.9v6Zm14.7,0c.2-2.6.6-3.7,2.1-3.7s2,1.1,2.2,3.7h4.5c-.2-3.5-1.3-6.3-6.6-6.3s-6.4,2.8-6.6,6.3Zm26,0a4.46,4.46,0,0,0,2.8-4.3c0-4.5-3.1-5.4-6.7-5.4h-8.6v9.8h12.5v-.1Zm9,0v-3.3h1.5a2.37,2.37,0,0,1,2.4,2.6,1.48,1.48,0,0,1-.1.7h4.2a6.62,6.62,0,0,0,.1-1.5c0-2.9-1.7-4.5-4.4-4.5h-8.2v6Zm14.8,0,.5-2.3.6,2.3h4.1l-1.8-6h-5.2l-1.8,6Zm13.4,0a2.13,2.13,0,0,1-.7-1.5,1.66,1.66,0,0,1,1.9-1.8h4v-2.6h-5.6c-4.6,0-5.7,2.1-5.7,4.8a5,5,0,0,0,.2,1.2l5.9-.1Zm12.7,0v-6h-4.4v6Zm6.9,0v-6h-4.3v6ZM25.3,120.5v-5.4h1.9a2.68,2.68,0,0,1,2.9,2.7,2.6,2.6,0,0,1-2.7,2.7H25.3Zm112.3.1v-5.4h2.6a2.45,2.45,0,0,1,2.4,2.7c0,2-1.3,2.7-2.2,2.7h-2.8Z" style="fill: #0060a9"/>
      <path d="M135.9,39.4l7.7,5.3,7.6-5.1V29.2L135.9,39.4ZM91.2,94.5l-7.7-5.3-7.7,5.3v10.2L91.2,94.5Zm29.3-45,7.6,5.1L92.2,78.9l22.2,15,10.4-7.1-8.1-5.4,18.7-12.5L151,79.3l-37.8,25.2-37.3-25,44.6-30ZM106.3,84l-7.6-5.1,35.9-24.3-22.2-15L102,46.7l8.1,5.4L91.4,64.6,75.8,54.2,113.5,29l37.4,25.1L106.3,84Z" style="fill: #0060a9"/>
    </g>
  </g>
</svg>
