<svg xmlns="http://www.w3.org/2000/svg" viewBox="0 0 224.75 177.85">
  <title>boleto</title>
  <g id="Layer_2" data-name="Layer 2">
    <g id="Layer_1-2" data-name="Layer 1">
      <path d="M224.62,167.23a10.51,10.51,0,0,1-10.5,10.5H10.62a10.51,10.51,0,0,1-10.5-10.5V10.62A10.51,10.51,0,0,1,10.62.12h203.5a10.51,10.51,0,0,1,10.5,10.5Z" style="fill: #f0efef;stroke: #dddddc;stroke-miterlimit: 10;stroke-width: 0.25px"/>
      <g>
        <g>
          <path d="M70.43,108.23h8.39a30,30,0,0,1,3.71.2,5.32,5.32,0,0,1,3.8,2.69,4.9,4.9,0,0,1,.6,2.5,5.09,5.09,0,0,1-.8,2.71,4.4,4.4,0,0,1-2.2,1.79,5.13,5.13,0,0,1,2.9,1.9,4.91,4.91,0,0,1,1,3.21,5.51,5.51,0,0,1-.7,2.79,5.58,5.58,0,0,1-1.8,2.21,6.37,6.37,0,0,1-2.8,1c-.7.1-2.4.1-5.1.1h-7.1v-21.1Zm4.19,3.5v4.79h2.8a21.23,21.23,0,0,0,3.1-.1,2.49,2.49,0,0,0,1.7-.8,2.25,2.25,0,0,0,.6-1.6,2.77,2.77,0,0,0-.5-1.6,2.58,2.58,0,0,0-1.6-.7c-.4,0-1.6-.1-3.6-.1h-2.5Zm0,8.29v5.6h3.9a18.76,18.76,0,0,0,2.9-.1,2.8,2.8,0,0,0,1.5-.79,2.44,2.44,0,0,0,.6-1.8,2.77,2.77,0,0,0-.5-1.6,2.68,2.68,0,0,0-1.3-1,14,14,0,0,0-3.79-.3H74.62Z" style="fill: #231f20"/>
          <path d="M90.62,121.33a8.09,8.09,0,0,1,1-3.9,7.79,7.79,0,0,1,2.8-2.9,7.92,7.92,0,0,1,4-1,7.31,7.31,0,0,1,5.6,2.2,8.48,8.48,0,0,1,0,11.4,7.54,7.54,0,0,1-5.6,2.3,9.34,9.34,0,0,1-4-.9,6.54,6.54,0,0,1-2.9-2.8A9.47,9.47,0,0,1,90.62,121.33Zm4.1.29a5.22,5.22,0,0,0,1.1,3.5,3.41,3.41,0,0,0,2.61,1.21,3.36,3.36,0,0,0,2.6-1.21,5.22,5.22,0,0,0,1.1-3.5,4.91,4.91,0,0,0-1.1-3.39,3.41,3.41,0,0,0-5.21,0C95,118.93,94.72,120,94.72,121.62Z" style="fill: #231f20"/>
          <path d="M109.43,129.12v-21h4v21Z" style="fill: #231f20"/>
          <path d="M126.32,124.33l4,.7a6.6,6.6,0,0,1-2.39,3.4,8,8,0,0,1-10.11-1.4,8.65,8.65,0,0,1-1.5-5.2,8.47,8.47,0,0,1,2-5.9,6.57,6.57,0,0,1,5-2.1,6.87,6.87,0,0,1,5.4,2.2c1.3,1.5,1.9,3.8,1.9,6.9h-10.1a4.14,4.14,0,0,0,1,2.8,2.93,2.93,0,0,0,2.3,1,2.84,2.84,0,0,0,1.6-.5A5.76,5.76,0,0,0,126.32,124.33Zm.21-4.1a3.86,3.86,0,0,0-.9-2.71,2.88,2.88,0,0,0-2.1-.9,2.73,2.73,0,0,0-2.21,1,3.18,3.18,0,0,0-.79,2.61Z" style="fill: #231f20"/>
          <path d="M140.82,114v3.21h-2.7v6.1a9.88,9.88,0,0,0,.1,2.2,1.05,1.05,0,0,0,.4.5,1.45,1.45,0,0,0,.7.2,4.16,4.16,0,0,0,1.61-.4l.29,3.1a7.94,7.94,0,0,1-3.2.6,4.48,4.48,0,0,1-2-.4,3.32,3.32,0,0,1-1.3-.9,3.46,3.46,0,0,1-.6-1.6,18.7,18.7,0,0,1-.1-2.8v-6.6h-1.8V114H134v-3l4-2.3v5.4h2.8Z" style="fill: #231f20"/>
          <path d="M142.62,121.33a8.09,8.09,0,0,1,1-3.9,7.12,7.12,0,0,1,2.8-2.9,7.92,7.92,0,0,1,4-1,7.31,7.31,0,0,1,5.6,2.2,8.48,8.48,0,0,1,0,11.4,7.54,7.54,0,0,1-5.6,2.3,9.34,9.34,0,0,1-4-.9,6.54,6.54,0,0,1-2.9-2.8A10.93,10.93,0,0,1,142.62,121.33Zm4.1.29a5.22,5.22,0,0,0,1.1,3.5,3.41,3.41,0,0,0,2.61,1.21,3.36,3.36,0,0,0,2.6-1.21,5.22,5.22,0,0,0,1.1-3.5,4.91,4.91,0,0,0-1.1-3.39,3.39,3.39,0,0,0-2.6-1.21,3.22,3.22,0,0,0-2.61,1.21A4.59,4.59,0,0,0,146.72,121.62Z" style="fill: #231f20"/>
        </g>
        <rect x="58.32" y="45.23" width="2.4" height="84.5" style="fill: #231f20"/>
        <rect x="166.22" y="45.23" width="2.4" height="84.5" style="fill: #231f20"/>
        <rect x="161.82" y="45.23" width="2.4" height="55.4" style="fill: #231f20"/>
        <rect x="151.82" y="45.23" width="7" height="55.4" style="fill: #231f20"/>
        <rect x="139.53" y="45.23" width="2.4" height="55.4" style="fill: #231f20"/>
        <rect x="128.43" y="45.23" width="8.5" height="55.4" style="fill: #231f20"/>
        <rect x="119.72" y="45.23" width="2.4" height="55.4" style="fill: #231f20"/>
        <rect x="110.82" y="45.23" width="7.1" height="55.4" style="fill: #231f20"/>
        <rect x="64.22" y="45.23" width="3.6" height="55.4" style="fill: #231f20"/>
        <rect x="70.82" y="45.23" width="2.4" height="55.4" style="fill: #231f20"/>
        <rect x="78.53" y="45.23" width="2.4" height="55.4" style="fill: #231f20"/>
        <rect x="101.62" y="45.23" width="2.4" height="55.4" style="fill: #231f20"/>
        <rect x="95.93" y="45.23" width="2.4" height="55.4" style="fill: #231f20"/>
        <rect x="83.72" y="45.23" width="7.6" height="55.4" style="fill: #231f20"/>
        <rect x="147.22" y="45.23" width="3.3" height="55.4" style="fill: #231f20"/>
      </g>
    </g>
  </g>
</svg>
