<svg xmlns="http://www.w3.org/2000/svg" viewBox="0 0 224.5 177.6">
  <title>bradesco</title>
  <g id="Layer_2" data-name="Layer 2">
    <g id="Layer_1-2" data-name="Layer 1">
      <path d="M224.5,167.1A10.5,10.5,0,0,1,214,177.6H10.5A10.5,10.5,0,0,1,0,167.1V10.5A10.5,10.5,0,0,1,10.5,0H214a10.5,10.5,0,0,1,10.5,10.5Z" style="fill: #ce0e2d"/>
      <rect x="102.9" y="76.4" width="5" height="25.7" style="fill: #fff"/>
      <rect x="112.4" y="66.8" width="8.2" height="35.3" style="fill: #fff"/>
      <path d="M98.4,42.2s8.3-8.1,22.3-5.4a25,25,0,0,1,10.9,5.1s.7.7,1.2.1c0,0,.7-.5-.1-1.3a25.33,25.33,0,0,0-12-8.1A32,32,0,0,0,98.4,34,23.71,23.71,0,0,0,87.6,44.7,64,64,0,0,0,78,48.8s-1.2.5-.8,1.4c0,0,.4.7,1.5.2a77.25,77.25,0,0,1,7.5-2.1,27.61,27.61,0,0,0,.1,17.2,28.07,28.07,0,0,0,7.7,12,1,1,0,0,0,1.3.2.8.8,0,0,0,.2-1.1,32.31,32.31,0,0,1-4.3-11.2c-1-5.3-.5-12.7,3.2-18.6,0,0,14.1-2,26.2,2.6,0,0,20.5,6.7,15.3,19.1,0,0-1.5,4.3-7.1,8.2,0,0-.9.6-.4,1.3,0,0,.4.6,1.4.2,0,0,8.6-2.8,12.4-9.8,0,0,7.6-11.6-10.3-21a49.5,49.5,0,0,0-11.2-4c-.1,0-11.5-2.8-22.3-1.2" style="fill: #fff"/>
      <path d="M153.8,128.6a.77.77,0,0,1-.1-.3.35.35,0,0,1-.2.1,4.56,4.56,0,0,1-2.1.5,3.66,3.66,0,0,1-3.6-3.9c0-2.6,1.4-4,3.4-4a3.94,3.94,0,0,1,2.5.8,10.11,10.11,0,0,1,1.6-3.3,7.52,7.52,0,0,0-1.4-.8h0a7.93,7.93,0,0,0-3.2-.7c-4.3,0-7.5,2.9-7.5,7.9s3.3,7.8,7.5,7.8a9.3,9.3,0,0,0,3.6-.7,11.73,11.73,0,0,0,1.1-.5,11,11,0,0,1-1.6-2.9" style="fill: #fff"/>
      <path d="M56,112.3h8.4c3.2,0,5.6,1.6,5.6,5.1,0,2.5-1.1,4-3.1,4.7v.1a4.16,4.16,0,0,1,3.5,4.4c0,4.8-3.7,5.8-6.8,5.8H55.9V112.3Zm4.6,16.3h1.8c1.7,0,3.5-.3,3.5-2.3,0-2.2-1.8-2.4-3.4-2.4H60.6v4.7Zm0-8.3h1.7c1.5,0,3.1-.4,3.1-2.1s-1.5-2-3-2H60.6v4.1Z" style="fill: #fff"/>
      <path d="M112.9,132.4h-4.1v-2.3h0a4.78,4.78,0,0,1-4.4,2.6c-3.8,0-5.9-3.7-5.9-8.1,0-3.7,2-7.6,5.5-7.6a4.64,4.64,0,0,1,4.4,2.3h.1v-7.1H113v20.2Zm-7.2-3.6c1.5,0,2.7-1.6,2.7-3.8s-1.1-3.9-2.7-3.9-2.7,1.7-2.7,3.7c-.1,2.4,1,4,2.7,4" style="fill: #fff"/>
      <path d="M159,124.9c0-5,3.3-7.9,7.5-7.9s7.5,2.9,7.5,7.9-3.3,7.9-7.5,7.9-7.5-2.9-7.5-7.9m10.5,0c0-2.3-.8-4.2-2.9-4.2s-2.9,2-2.9,4.2.8,4.2,2.9,4.2,2.9-1.9,2.9-4.2" style="fill: #fff"/>
      <path d="M96.3,132.4a21.14,21.14,0,0,1-.2-3.5v-5.6c0-4.6-2.9-6.2-6.2-6.2a12.22,12.22,0,0,0-5.1,1v3.5h0a7.44,7.44,0,0,1,4.1-1.1c1.6,0,2.9.5,3,2.6a13.61,13.61,0,0,0-2.1-.2c-2.4,0-6.7.5-6.7,5.1,0,3.3,2.3,4.7,4.8,4.7a4.49,4.49,0,0,0,4-2.3v2Zm-4.4-4.7a3.19,3.19,0,0,1-2.8,1.6,1.63,1.63,0,0,1-1.8-1.6c0-1.4,1.2-2,2.7-2,.7,0,1.3.1,1.9.1v1.9Z" style="fill: #fff"/>
      <path d="M80.9,117.1c-1.9,0-3.1,1.2-3.8,3.1h0v-2.8H73v15h4.5V126c0-2.9,1.2-4.7,3.2-4.9a7.72,7.72,0,0,1,1.5.2v-4.2a5.65,5.65,0,0,1-1.3,0" style="fill: #fff"/>
      <path d="M128.6,125.5c0-4.5-1.7-8.4-6.5-8.4-4,0-6.9,2.9-6.9,7.9s3.3,7.9,7.5,7.9a10.44,10.44,0,0,0,4.7-1v-3.7a7.66,7.66,0,0,1-3.9,1.2c-2.2,0-3.6-.8-3.8-2.9h8.9v-1Zm-9-2c.1-1.7.9-3.1,2.5-3.1,1.8,0,2.5,1.4,2.5,3.1Z" style="fill: #fff"/>
      <path d="M136.1,117.1c-2.6,0-5.5,1.4-5.5,4.9,0,5.4,6.4,3.6,6.4,6.2,0,1-.9,1.2-1.8,1.2a10,10,0,0,1-4.2-1V132a11.06,11.06,0,0,0,4.4.9c2.9,0,6-1,6-5,0-5.7-6.7-3.9-6.7-6.2,0-.8,1.1-1.1,2.1-1a8.33,8.33,0,0,1,3.6,1.1v-3.7a9.35,9.35,0,0,0-4.3-1" style="fill: #fff"/>
    </g>
  </g>
</svg>
