<svg xmlns="http://www.w3.org/2000/svg" viewBox="0 0 224.75 177.85">
  <title>diners</title>
  <g id="Layer_2" data-name="Layer 2">
    <g id="Layer_1-2" data-name="Layer 1">
      <g>
        <path d="M224.62,167.23a10.51,10.51,0,0,1-10.5,10.5H10.62a10.51,10.51,0,0,1-10.5-10.5V10.62A10.51,10.51,0,0,1,10.62.12h203.5a10.51,10.51,0,0,1,10.5,10.5Z" style="fill: #f0efef;stroke: #dddddc;stroke-miterlimit: 10;stroke-width: 0.25px"/>
        <g>
          <path d="M125.32,84.83a24.21,24.21,0,0,0,0-48.41H94.72a24.21,24.21,0,0,0,0,48.41Z" style="fill: #0c4e97"/>
          <path d="M94.72,84.33A23.71,23.71,0,1,0,71,60.62a23.69,23.69,0,0,0,23.7,23.71Z" style="fill: #d1d2d3"/>
          <path d="M89.92,46.93a14.52,14.52,0,0,0,0,27.4V46.93Z" style="fill: #0c4e97"/>
          <path d="M109.12,60.63a14.62,14.62,0,0,1-9.7,13.7V47a14.27,14.27,0,0,1,9.7,13.6Z" style="fill: #0c4e97"/>
          <g>
            <path d="M75.22,96.83c0-2.6-1.5-6.5-7.2-6.5h-6.3v.4c1.2.1,1.9.2,1.9,1.1a6.14,6.14,0,0,1-.29,1.5l-2.91,10.29c-.4,1.5-.8,1.61-2,1.8v.4h6.2C71.82,105.83,75.22,101.83,75.22,96.83Zm-12.4,7.3a16.42,16.42,0,0,1,.5-2.3l2.9-10.1c.1-.3.2-.7,1.6-.7,4.3,0,4.7,3,4.7,5.5,0,1.5-.2,8.6-7.9,8.6C63.32,105.13,62.82,104.93,62.82,104.13Z" style="fill: #0c4e97"/>
            <path d="M77.12,106.13c1.41,0,2.41-1.3,3.41-2.8l-.3-.3c-1,1.4-1.7,1.9-2,1.9a.43.43,0,0,1-.4-.4,8.51,8.51,0,0,1,.4-1.6l2.2-7.9h-.1a28.46,28.46,0,0,1-3.9.6V96c1.3,0,1.5.1,1.5.6,0,.7-1.9,6.8-1.9,7.9C75.92,105,75.92,106.13,77.12,106.13Z" style="fill: #0c4e97"/>
            <path d="M80,92.43a1.3,1.3,0,0,0,0-2.6,1.24,1.24,0,0,0-1.2,1.3A1.18,1.18,0,0,0,80,92.43Z" style="fill: #0c4e97"/>
            <path d="M83.12,96.83c0,.5-1.59,6.2-2.4,9h1.8c1-3.3,1.3-4.4,2.4-6.1.91-1.4,2.41-3.5,3.6-3.5.5,0,.6.29.6.79,0,1-1.8,7-1.8,7.5,0,.71,0,1.4,1.2,1.4s2.2-1.1,3.4-2.8l-.3-.29c-.9,1.2-1.5,1.9-2,1.9a.36.36,0,0,1-.4-.4c0-.71,2-6.8,2-7.8a1.5,1.5,0,0,0-1.7-1.6c-2,0-4.3,3.4-5.4,5.2H84l1.6-5.1h-.1c-1.3.3-2.6.5-4,.8v.4C82.92,96.23,83.12,96.43,83.12,96.83Z" style="fill: #0c4e97"/>
            <path d="M95.72,106.13c2.5,0,4.7-2.3,4.9-2.6l-.29-.3c-1.21,1-2.3,1.8-3.6,1.8a2.16,2.16,0,0,1-2.3-2.2,7.72,7.72,0,0,1,.2-1.5l.7-.1c4-.61,6.3-2.5,6.3-4.5,0-1.11-.8-1.71-2-1.71-3.5,0-7.3,4.1-7.3,7.6A3.19,3.19,0,0,0,95.72,106.13Zm-.4-6.4c.9-2.21,2.6-4.11,3.9-4.11a.92.92,0,0,1,.9,1c0,.21-.09,3.11-5.2,4.21Z" style="fill: #0c4e97"/>
            <path d="M103.82,96.73c0,.2-.2,1-.4,2l-2,7.1h1.9c1-3.3,1.3-4.4,2.3-6.1.2-.4,1.7-3.11,2.4-3.11s.2.9,1.3.9c.3,0,1.2,0,1.2-1.29a1.16,1.16,0,0,0-1.2-1.21c-1.5,0-3.4,2.9-4.2,4.5l-.2.5h0l1.2-4.9H106c-1.1.21-2.5.5-3.8.71v.4c.3,0,.5-.11.8-.11C103.72,96,103.82,96.43,103.82,96.73Z" style="fill: #0c4e97"/>
            <path d="M111.92,105.63c-2,0-2.4-2.3-2.5-3.3H109l-.5,3.9h.4c.1-.3.2-.5.6-.5.7,0,1.7.5,2.4.5,1.41,0,3.6-.6,3.6-3.3,0-2.1-3-4.3-3-5.8a1.22,1.22,0,0,1,1.3-1.4c1.6,0,2.2,1.4,2.3,2.8h.4l.5-3.4h-.3a.72.72,0,0,1-.7.4c-.7,0-1.2-.4-2.3-.4a2.61,2.61,0,0,0-2.9,2.7c0,1.9,2.9,4.2,2.9,5.9C113.62,104.43,113.22,105.63,111.92,105.63Z" style="fill: #0c4e97"/>
            <path d="M128.82,106.33c3.6,0,5.8-2.6,6.7-3.6l-.4-.3c-1.2,1.1-2.9,2.9-5.7,2.9s-4.3-2-4.3-5.21c0-3.6,2.5-9.5,7.4-9.5,3.5,0,3.7,3.3,3.8,4l.4.11.9-4.9h-.5c-.09.2-.29.5-1,.5a27,27,0,0,0-3.79-.6c-5.6,0-9.91,5.39-9.91,10.1A6.08,6.08,0,0,0,128.82,106.33Z" style="fill: #0c4e97"/>
            <path d="M140.52,90.83c0,.5-3.6,13.29-3.6,13.79,0,.71.1,1.5,1.2,1.5,1.5,0,2.5-1.2,3.71-3.1l-.3-.2c-1.2,1.5-1.7,2.2-2.3,2.2-.4,0-.4-.29-.4-.5s.2-.9.2-1.1l3.7-14.2-.1-.1c-1.3.3-2.5.5-3.8.7v.4C139.42,90.13,140.52,90.13,140.52,90.83Z" style="fill: #0c4e97"/>
            <path d="M142.72,96c1,0,1.5,0,1.5.7s-1.9,6.8-1.9,7.9.5,1.4,1.4,1.4c2.2,0,4-3.1,5.7-5.8h.1a27.49,27.49,0,0,0-1,4.5c0,.4,0,1.3,1.1,1.3s1.9-.6,3.4-2.9l-.3-.2c-.9,1.1-1.5,1.9-2,1.9-.3,0-.3-.3-.3-.4a7.67,7.67,0,0,1,.5-1.9l1.91-7.3H151a28.2,28.2,0,0,1-2.7,6c-.8,1.3-2.41,3.6-3.41,3.6a.57.57,0,0,1-.5-.8l2.2-8.9h-.09c-1.2.3-2.41.5-3.7.7V96Z" style="fill: #0c4e97"/>
            <path d="M156.22,106.13c3.7,0,7.8-4.2,7.8-8.1,0-1.8-1.1-3.7-2.8-3.7a4.83,4.83,0,0,0-4.3,2.5h0c.8-2.8,1.6-5.5,2.1-7.5l-.1-.1c-1.3.2-2.5.39-3.7.6v.4c1.4,0,1.6.1,1.6.7a7.32,7.32,0,0,1-.4,1.6l-3.3,12.3v.1C153,105.33,154.92,106.13,156.22,106.13Zm-1-1.4c.3-4.4,2.4-9.21,5.1-9.21,1.5,0,1.7,2,1.7,2.8,0,2.1-2.3,7.2-5.7,7.2C155.22,105.53,155.12,104.93,155.22,104.73Z" style="fill: #0c4e97"/>
            <path d="M60.92,111.53c.41-1.5.8-1.6,2-1.8v-.4h-6v.4c1.1.1,1.7.2,1.7,1.1a4.4,4.4,0,0,1-.29,1.5l-2.91,10.2c-.4,1.5-.8,1.6-2,1.8v.4h6v-.4c-1.09-.1-1.7-.2-1.7-1a4.15,4.15,0,0,1,.3-1.6Z" style="fill: #0c4e97"/>
            <path d="M69.92,123.73s-.4-.11-.4-.4c0-.71,2-6.8,2-7.8a1.5,1.5,0,0,0-1.7-1.6c-2,0-4.3,3.4-5.4,5.2h0L66,114h-.1c-1.3.3-2.6.5-4,.8v.4c1.3,0,1.6.29,1.6.6,0,.5-1.6,6.2-2.4,9h1.8c1-3.3,1.3-4.4,2.4-6.1.9-1.4,2.4-3.5,3.6-3.5.5,0,.6.29.6.79,0,1-1.8,7-1.8,7.5,0,.71,0,1.4,1.2,1.4s2.2-1.1,3.4-2.8l-.3-.29C71,123,70.42,123.73,69.92,123.73Z" style="fill: #0c4e97"/>
            <path d="M74.92,123.73a.37.37,0,0,1-.4-.4v-.21l2.2-8.2h2.1l.1-.8h-2l.7-2.5c0-.2,0-.39-.2-.39s-.3.2-.4.29a9.94,9.94,0,0,1-2.7,2.4c-.4.2-1.1.4-1.2.6s-.1.21,0,.4h1.8l-1.8,6.7a19.48,19.48,0,0,0-.6,2.3,1.11,1.11,0,0,0,1.2,1c1.3,0,2.2-1.1,3.5-3l-.3-.2C76.22,122.63,75.42,123.73,74.92,123.73Z" style="fill: #0c4e97"/>
            <path d="M81.12,120c4-.6,6.3-2.5,6.3-4.5,0-1.1-.8-1.7-2-1.7-3.5,0-7.3,4.1-7.3,7.6a3.13,3.13,0,0,0,3.41,3.4,7.06,7.06,0,0,0,4.9-2.6l-.3-.3c-1.2,1-2.3,1.8-3.6,1.8a2.17,2.17,0,0,1-2.3-2.21,7.72,7.72,0,0,1,.2-1.5Zm-.1-1.5c.9-2.2,2.6-4.1,3.9-4.1a.93.93,0,0,1,.91,1c0,.2-.1,3.1-5.21,4.2Z" style="fill: #0c4e97"/>
            <path d="M96.22,115.13a1.15,1.15,0,0,0-1.2-1.2c-1.5,0-3.4,2.9-4.2,4.5l-.2.5h0l1.2-4.9h-.1c-1.1.2-2.5.5-3.8.7v.4c.3,0,.5-.1.8-.1.8,0,.9.4.9.7a7.73,7.73,0,0,1-.4,2l-2,7.2h1.9c1-3.3,1.3-4.4,2.3-6.1.2-.4,1.7-3.1,2.41-3.1s.2.9,1.29.9C95.32,116.33,96.22,116.33,96.22,115.13Z" style="fill: #0c4e97"/>
            <path d="M104.52,123.73s-.4-.11-.4-.4c0-.71,2-6.8,2-7.8a1.5,1.5,0,0,0-1.7-1.6c-2,0-4.3,3.4-5.4,5.2h0l1.6-5.1h-.1c-1.3.3-2.6.5-4,.8v.4c1.3,0,1.6.29,1.6.6,0,.5-1.6,6.2-2.4,9h1.8c1-3.3,1.3-4.4,2.4-6.1.9-1.4,2.4-3.5,3.6-3.5.5,0,.6.29.6.79,0,1-1.8,7-1.8,7.5,0,.71,0,1.4,1.2,1.4s2.2-1.1,3.4-2.8l-.3-.29C105.62,123,105,123.73,104.52,123.73Z" style="fill: #0c4e97"/>
            <path d="M117.82,122c-1.1,1.1-1.6,1.7-2,1.7a.27.27,0,0,1-.3-.3c0-.8,2.3-9.1,2.3-9.4l-.2-.1-1.5.2-.1.1-.2,1.1h0a1.81,1.81,0,0,0-1.9-1.3c-3.3,0-7,4.6-7,8.2,0,.7.1,2.9,2.5,2.9,1.5,0,2.8-.7,4.8-3.7h0a9.76,9.76,0,0,0-.5,2.6c0,.4,0,1.1,1,1.1s1.9-.9,3.4-2.7Zm-7.4,1.7c-.7,0-1.5-.4-1.5-1.71,0-2.2,2.2-7.6,5.1-7.6a1.43,1.43,0,0,1,1.4,1.6C115.42,118.43,113,123.73,110.42,123.73Z" style="fill: #0c4e97"/>
            <path d="M123.22,111.73c0-.21,0-.4-.2-.4s-.3.2-.4.29a9.94,9.94,0,0,1-2.7,2.4c-.4.21-1.1.4-1.2.6s-.1.21,0,.4h1.8l-1.8,6.71a18.84,18.84,0,0,0-.6,2.29,1.1,1.1,0,0,0,1.2,1c1.3,0,2.2-1.1,3.5-3l-.3-.2c-.6.8-1.5,1.9-2,1.9a.37.37,0,0,1-.4-.4v-.2l2.2-8.2h2.1l.1-.8h-2Z" style="fill: #0c4e97"/>
            <path d="M127.12,123.83a.44.44,0,0,1-.4-.4,9.36,9.36,0,0,1,.4-1.6l2.21-7.9h-.1a28.46,28.46,0,0,1-3.9.6v.4c1.29,0,1.5.1,1.5.6,0,.7-1.91,6.8-1.91,7.9,0,.4,0,1.5,1.2,1.5,1.41,0,2.5-1.3,3.41-2.8l-.3-.3C128.12,123.33,127.42,123.83,127.12,123.83Z" style="fill: #0c4e97"/>
            <path d="M128.92,108.73a1.16,1.16,0,0,0-1.09,1.29,1.18,1.18,0,0,0,1.2,1.3,1.29,1.29,0,0,0,1.2-1.3A1.41,1.41,0,0,0,128.92,108.73Z" style="fill: #0c4e97"/>
            <path d="M137,113.93c-3.6,0-7.2,3.9-7.2,7.5,0,2,1.1,3.5,3.7,3.5,3.7,0,7.1-4.4,7.1-7.4A3.28,3.28,0,0,0,137,113.93Zm-3.2,10.5a2,2,0,0,1-2-2.3c0-2.9,2.2-7.8,5-7.8,1.2,0,1.7,1.1,1.7,2.4C138.62,119.43,136.62,124.43,133.82,124.43Z" style="fill: #0c4e97"/>
            <path d="M148.82,123.73s-.4-.11-.4-.4c0-.71,2-6.8,2-7.8a1.5,1.5,0,0,0-1.7-1.6c-2,0-4.3,3.4-5.4,5.2h-.1l1.6-5.1h-.1c-1.3.3-2.6.5-4,.8v.4c1.3,0,1.6.29,1.6.6,0,.5-1.6,6.2-2.4,9h1.8c1-3.3,1.3-4.4,2.4-6.1.9-1.4,2.4-3.5,3.6-3.5.5,0,.6.29.6.79,0,1-1.8,7-1.8,7.5,0,.71,0,1.4,1.2,1.4s2.2-1.1,3.4-2.8l-.3-.29C149.92,123,149.32,123.73,148.82,123.73Z" style="fill: #0c4e97"/>
            <path d="M160.32,123.73a.27.27,0,0,1-.3-.3c0-.8,2.3-9.1,2.3-9.4l-.2-.1-1.5.2-.1.1-.2,1.1h-.1a1.81,1.81,0,0,0-1.9-1.3c-3.3,0-7,4.6-7,8.2,0,.7.1,2.9,2.5,2.9,1.5,0,2.8-.7,4.8-3.7h0a9.76,9.76,0,0,0-.5,2.6c0,.4,0,1.1,1,1.1s1.9-.9,3.4-2.7l-.3-.2C161.12,123.13,160.62,123.73,160.32,123.73Zm-5.5,0c-.7,0-1.5-.4-1.5-1.71,0-2.2,2.2-7.6,5.1-7.6a1.43,1.43,0,0,1,1.4,1.6C159.82,118.43,157.42,123.73,154.82,123.73Z" style="fill: #0c4e97"/>
            <path d="M168.62,108.13l-.09-.1c-1.3.3-2.5.5-3.8.7v.4c.6,0,1.7,0,1.7.6s-3.5,13.3-3.5,13.8c0,.7.1,1.5,1.2,1.5,1.5,0,2-.5,3.2-2.4l-.3-.2c-1.2,1.5-1.2,1.6-1.9,1.6-.4,0-.4-.3-.4-.5s.2-.9.2-1.2Z" style="fill: #0c4e97"/>
            <path d="M171.12,107.63a2.1,2.1,0,1,0,0,4.2,2.1,2.1,0,0,0,0-4.2Zm0,3.9a1.71,1.71,0,0,1-1.7-1.8,1.77,1.77,0,0,1,1.7-1.8,1.8,1.8,0,0,1,0,3.6Z" style="fill: #0c4e97"/>
            <path d="M172.12,109.23c0-.5-.29-.71-.9-.71h-.9v2.4h.4v-1.1h.4l.6,1.1h.4l-.7-1.1C171.82,109.83,172.12,109.63,172.12,109.23Zm-1.4.3v-.8h.5c.3,0,.5.1.5.4s-.3.4-.6.4Z" style="fill: #0c4e97"/>
          </g>
        </g>
      </g>
    </g>
  </g>
</svg>
