<svg xmlns="http://www.w3.org/2000/svg" xmlns:xlink="http://www.w3.org/1999/xlink" viewBox="0 0 223.95 177.05">
  <defs>
    <radialGradient id="radial-gradient" cx="112.06" cy="-5980.8" r="16.53" gradientTransform="matrix(1, 0, 0, -1, 6.42, -5899.87)" gradientUnits="userSpaceOnUse">
      <stop offset="0.01" stop-color="#ffefe1"/>
      <stop offset="0.1" stop-color="#ffead8"/>
      <stop offset="0.25" stop-color="#fedec1"/>
      <stop offset="0.43" stop-color="#fdca9e"/>
      <stop offset="0.65" stop-color="#faaf72"/>
      <stop offset="0.9" stop-color="#f79038"/>
      <stop offset="1" stop-color="#f58220"/>
    </radialGradient>
  </defs>
  <title>discover</title>
  <g id="Layer_2" data-name="Layer 2">
    <g id="Layer_1-2" data-name="Layer 1">
      <g>
        <g>
          <path d="M223.82,166.42a10.5,10.5,0,0,1-10.5,10.5H10.62a10.51,10.51,0,0,1-10.5-10.5V10.62A10.51,10.51,0,0,1,10.62.12H213.23a10.51,10.51,0,0,1,10.5,10.5v155.8Z" style="fill: #f2f2f2;stroke: #dddddc;stroke-miterlimit: 10;stroke-width: 0.25px"/>
          <path d="M223.82,166.62V96.23c-4.3,3-80.9,54.89-218.1,79.7a9.38,9.38,0,0,0,2.8,1h206.9A10.43,10.43,0,0,0,223.82,166.62Z" style="fill: #f58220"/>
        </g>
        <g>
          <path d="M118.52,64.62c-9.2,0-16.7,7.21-16.7,16.11a16.71,16.71,0,0,0,33.41.2C135.23,71.73,127.93,64.62,118.52,64.62Z" style="fill: url(#radial-gradient)"/>
          <path d="M23.42,65.12h-9v31.4h9c4.8,0,8.2-1.1,11.2-3.6a15.7,15.7,0,0,0,5.71-12.1C40.32,71.62,33.32,65.12,23.42,65.12Zm7.2,23.61c-1.89,1.7-4.39,2.5-8.39,2.5H20.62V70.43h1.61c4,0,6.39.7,8.39,2.5a10.61,10.61,0,0,1,3.4,7.8A11.14,11.14,0,0,1,30.62,88.73Z"/>
          <rect x="43.13" y="65.13" width="6.1" height="31.4"/>
          <path d="M64.23,77.23c-3.71-1.4-4.8-2.3-4.8-4,0-2,1.9-3.5,4.59-3.5,1.8,0,3.3.79,5,2.5L72.23,68A13.78,13.78,0,0,0,63,64.52c-5.59,0-9.79,3.9-9.79,9,0,4.3,2,6.5,7.7,8.6a18.89,18.89,0,0,1,4.2,1.8,3.72,3.72,0,0,1,1.8,3.2,4.48,4.48,0,0,1-4.8,4.4,7.33,7.33,0,0,1-6.7-4.2l-4,3.8c2.8,4.1,6.2,6,10.9,6,6.4,0,10.8-4.2,10.8-10.3C73.23,82,71.23,79.73,64.23,77.23Z"/>
          <path d="M75.12,80.92a16.33,16.33,0,0,0,16.6,16.4,17.27,17.27,0,0,0,7.7-1.8v-7.2c-2.5,2.5-4.6,3.4-7.4,3.4-6.2,0-10.5-4.5-10.5-10.8,0-6,4.5-10.8,10.3-10.8,2.9,0,5.1,1,7.7,3.5v-7.2a15.2,15.2,0,0,0-7.5-1.9A16.47,16.47,0,0,0,75.12,80.92Z"/>
          <polygon points="149.03 86.22 140.72 65.13 134.03 65.13 147.32 97.33 150.63 97.33 164.22 65.13 157.53 65.13 149.03 86.22"/>
          <polygon points="166.93 96.53 184.32 96.53 184.32 91.22 173.13 91.22 173.13 82.72 183.93 82.72 183.93 77.42 173.13 77.42 173.13 70.53 184.32 70.53 184.32 65.13 166.93 65.13 166.93 96.53"/>
          <path d="M208.62,74.42c0-5.9-4-9.3-11.1-9.3h-9.09v31.4h6.09V83.92h.8l8.5,12.6h7.5l-9.9-13.2C206,82.42,208.62,79.23,208.62,74.42Zm-12.3,5.2h-1.8v-9.5h1.91c3.8,0,5.9,1.61,5.9,4.71S200.23,79.62,196.32,79.62Z"/>
          <path d="M212.93,67.52c0-.5-.41-.79-1-.79H211v2.79h.71v-1.1l.79,1.1h.8l-.9-1.1A1,1,0,0,0,212.93,67.52Zm-1.2.4h-.1v-.7h.1c.29,0,.5.1.5.4C212.23,67.73,212.12,67.92,211.73,67.92Z"/>
          <path d="M212,65.62a2.4,2.4,0,1,0,2.41,2.4A2.45,2.45,0,0,0,212,65.62Zm0,4.4a1.93,1.93,0,0,1-1.9-2,1.91,1.91,0,1,1,1.9,2Z"/>
          <path d="M69.32,104.82l8.2,8.6v-8.1h1.21v11l-8.21-8.6v8.1h-1.2Z"/>
          <path d="M69.23,104.82v11.1h1.4V108c.4.4,8.2,8.6,8.2,8.6V105.23h-1.4v8c-.41-.4-8.2-8.61-8.2-8.61Zm.2.3c.4.4,8.2,8.61,8.2,8.61v-8.3h.9V116c-.4-.4-8.2-8.6-8.2-8.6v8.3h-1C69.43,115.42,69.43,105.62,69.43,105.12Z"/>
          <path d="M84.32,105.23h5.41v1.1h-4.3v3.1h4.2v1.1h-4.2v4.1h4.3v1.1H84.32Z"/>
          <path d="M89.82,105.12H84.23v10.71h5.7v-1.3h-4.3v-3.9h4.1v-1.3h-4.1v-2.9h4.3v-1.3h-.11Zm-.09.3v.9h-4.3v3.3h4.2v.9h-4.2v4.3h4.3v.9H84.52v-10.3Z"/>
          <path d="M98,115.82h-1.2v-9.4h-2.5v-1.1h6.3v1.1H98Z"/>
          <path d="M100.62,105.12h-6.4v1.3h2.5v9.4h1.4v-9.4h2.6v-1.3Zm-.1.3v.9H97.93v9.4h-1v-9.4h-2.5v-.9Z"/>
          <path d="M108.43,113.12l3.4-8.39,3.4,8.39,2.8-7.89h1.3l-4,11-3.4-8.5-3.41,8.5-4-11h1.3Z"/>
          <path d="M111.73,104.73l-3.3,8.1c-.2-.5-2.7-7.71-2.7-7.71h-1.5l4.2,11.5,3.4-8.5,3.4,8.5,4.2-11.5h-1.5s-2.5,7.21-2.7,7.71l-3.4-8.4Zm-3.21,8.5,3.3-8.21,3.41,8.4s2.79-7.9,2.79-8.1h1c-.09.3-3.7,10.1-3.9,10.6l-3.4-8.4-3.4,8.4c-.2-.5-3.8-10.4-3.9-10.6h1c.1.1,2.8,8.1,2.8,8.1Z"/>
          <path d="M134.43,110.52a5.5,5.5,0,1,1-5.5-5.4A5.46,5.46,0,0,1,134.43,110.52Zm-9.81,0a4.27,4.27,0,0,0,4.3,4.3,4.35,4.35,0,0,0,0-8.7A4.43,4.43,0,0,0,124.62,110.52Z"/>
          <path d="M123.32,110.52a5.6,5.6,0,1,0,5.6-5.6A5.66,5.66,0,0,0,123.32,110.52Zm.3,0a5.41,5.41,0,1,1,5.4,5.3A5.35,5.35,0,0,1,123.62,110.52Z"/>
          <path d="M124.52,110.52a4.41,4.41,0,1,0,4.41-4.5A4.46,4.46,0,0,0,124.52,110.52Zm.21,0a4.2,4.2,0,1,1,4.2,4.21A4.23,4.23,0,0,1,124.73,110.52Z"/>
          <path d="M140.73,115.82h-1.21v-10.5H141c2,0,3.8.5,3.8,2.9a2.72,2.72,0,0,1-2.59,2.9l3.29,4.7h-1.4l-3.2-4.6h-.3v4.6Zm0-5.7h.4c1.3,0,2.7-.2,2.7-1.89s-1.3-1.9-2.7-1.9h-.3v3.79Z"/>
          <path d="M139.52,105.12h-.09v10.71h1.4v-4.6h.2c0,.1,3.1,4.6,3.1,4.6h1.7s-3.2-4.5-3.4-4.8a2.87,2.87,0,0,0,2.59-3c0-2-1.29-3-4-3h-1.5Zm1.5.3c2.5,0,3.71.9,3.71,2.8a2.61,2.61,0,0,1-2.5,2.8H142s3.1,4.4,3.3,4.7h-1.2c0-.1-3.1-4.6-3.1-4.6h-.5v4.6h-1v-10.3Z"/>
          <path d="M140.73,106.23h-.1v4h.5c1.3,0,2.8-.21,2.8-2s-1.41-2-2.8-2Zm.29.29c1.3,0,2.6.1,2.6,1.8s-1.3,1.8-2.5,1.8h-.3v-3.5A.33.33,0,0,1,141,106.52Z"/>
          <path d="M156.23,105.23h1.59l-4.9,4.89,5.1,5.61h-1.6l-4.3-4.8-.3.3v4.5h-1.2v-10.5h1.2v4.5Z"/>
          <path d="M157.73,105.12h-1.6l-4.3,4.3v-4.3h-1.4v10.71h1.4v-4.6a.34.34,0,0,1,.2-.11c.1.21,4.2,4.71,4.2,4.71h2l-5.2-5.71,5.1-5Zm-.21.3c-.29.4-4.79,4.8-4.79,4.8s4.7,5.2,5,5.5h-1.41c0-.1-4.2-4.8-4.2-4.8l-.1-.1-.4.4v4.5h-.9v-10.3h.9v4.7s4.6-4.6,4.6-4.7Z"/>
        </g>
      </g>
    </g>
  </g>
</svg>
