<svg xmlns="http://www.w3.org/2000/svg" viewBox="0 0 224.72 177.82">
  <title>elo</title>
  <g id="Layer_2" data-name="Layer 2">
    <g id="Layer_1-2" data-name="Layer 1">
      <g>
        <path d="M224.61,167.21a10.5,10.5,0,0,1-10.5,10.5H10.61a10.5,10.5,0,0,1-10.5-10.5V10.61A10.5,10.5,0,0,1,10.61.11h203.5a10.5,10.5,0,0,1,10.5,10.5Z" style="fill: #2a252e;stroke: #383535;stroke-miterlimit: 22.925600051879883;stroke-width: 0.2214999943971634px"/>
        <g>
          <path d="M111.91,138.81a51.1,51.1,0,1,0-51.1-51.1A51.26,51.26,0,0,0,111.91,138.81Z" style="fill: #2a252e;stroke: #898989;stroke-miterlimit: 22.925600051879883;stroke-width: 0.5px"/>
          <path d="M89.91,74a15.76,15.76,0,0,1,15.3,12l-6.3,2.8h0l-6.5,2.8-3.6,1.6v-6l7.9-3.4a8.78,8.78,0,0,0-6.7-3,3.75,3.75,0,0,0-1.1.1v-6.8A3.08,3.08,0,0,1,89.91,74Zm-1.1,19.2-12,5.2a15.36,15.36,0,0,1-2.6-8.7A15.73,15.73,0,0,1,88.81,74v6.8a9,9,0,0,0-7.9,8.9v.8l7.8-3.4v6.1Z" style="fill: #faed2a"/>
          <path d="M100.91,100.91c-5.6,5.3-13.1,5.9-19.6,1.9l3.7-5.6c3.7,2.2,7.5,1.9,11.2-1.1Z" style="fill: #fff"/>
          <path d="M107.31,97V67.31h5.6v28.9a.62.62,0,0,0,.4.7l4.9,1.9-2.2,5.7-5.7-2.4C108,101.21,107.31,99.91,107.31,97Z" style="fill: #fff"/>
          <path d="M144.71,100.81a15.49,15.49,0,0,1-26.1-11.3,15.8,15.8,0,0,1,1.6-6.8l5.9,3.1a9.09,9.09,0,0,0-.8,3.7,8.92,8.92,0,0,0,8.9,8.9,8.69,8.69,0,0,0,6.2-2.5Z" style="fill: #aa1e2e"/>
          <path d="M134,73.71a15.45,15.45,0,0,1,15.5,15.5,14.55,14.55,0,0,1-1.5,6.6l-5.9-3.1a8.12,8.12,0,0,0,.7-3.5,8.92,8.92,0,0,0-8.9-8.9,9.12,9.12,0,0,0-6,2.3l-4.4-4.9A15.55,15.55,0,0,1,134,73.71Z" style="fill: #faed2a"/>
        </g>
      </g>
    </g>
  </g>
</svg>
