<svg xmlns="http://www.w3.org/2000/svg" xmlns:xlink="http://www.w3.org/1999/xlink" viewBox="0 0 224.5 177.6">
  <defs>
    <linearGradient id="linear-gradient" y1="-6475" x2="224.5" y2="-6475" gradientTransform="matrix(1, 0, 0, -1, 0, -6386.2)" gradientUnits="userSpaceOnUse">
      <stop offset="0" stop-color="#971d20"/>
      <stop offset="1" stop-color="#971d20"/>
    </linearGradient>
    <linearGradient id="linear-gradient-2" x1="26.4" y1="-6471.55" x2="200.4" y2="-6471.55" gradientTransform="matrix(1, 0, 0, -1, 0, -6386.2)" gradientUnits="userSpaceOnUse">
      <stop offset="0" stop-color="#971d20"/>
      <stop offset="1" stop-color="#be202e"/>
    </linearGradient>
  </defs>
  <title>hipercard</title>
  <g id="Layer_2" data-name="Layer 2">
    <g id="Layer_1-2" data-name="Layer 1">
      <g>
        <path d="M224.5,167.1A10.5,10.5,0,0,1,214,177.6H10.5A10.5,10.5,0,0,1,0,167.1V10.5A10.5,10.5,0,0,1,10.5,0H214a10.5,10.5,0,0,1,10.5,10.5Z" style="fill: url(#linear-gradient)"/>
        <g>
          <path d="M200.4,47.7l-145-.3S41.6,47.1,38.9,61s-12.5,62-12.5,62l144.2.3s13.6.3,16.5-12.8S200.4,47.7,200.4,47.7Z" style="fill: url(#linear-gradient-2)"/>
          <path id="hipercard" d="M71.9,76.2c.8-.5,1.7-2.9.6-3.9a2.35,2.35,0,0,0-1.8-.3,2,2,0,0,0-1.5.8c-.5.7-.9,2.6-.2,3.3S71.4,76.5,71.9,76.2ZM61.1,72.3c-.5,3.5-1.2,7-1.8,10.4-3.9,0-7.9.2-11.7-.1.7-3.4,1.2-6.9,1.9-10.3H45.4c-1.5,8.6-2.9,17.3-4.6,25.7h4.3c.7-4.3,1.3-8.7,2.2-12.8a111.72,111.72,0,0,1,11.6.1c-.7,4.3-1.6,8.4-2.3,12.7h4.3c1.4-8.7,2.9-17.4,4.6-25.7Zm61.1,7.4c-3.4-1.4-6,.9-7.2,3.1.3-1,.4-2.1.6-3.1h-3.3c-.8,6.4-2,12.3-3.2,18.3h3.8c.5-3.6.8-8.4,1.9-11.8.9-2.7,3.4-5.1,7-3.8A25.12,25.12,0,0,1,122.2,79.7Zm2.2,14a9.91,9.91,0,0,1-.4-3.5c.2-2.5,1.1-5.6,2.6-7,2-1.9,5.9-1.6,9-.5.1-1,.3-2,.4-3-5.1-.8-9.9-.3-12.5,2.4s-4.2,8.7-3,12.5c1.4,4.5,7.5,4.7,12.4,3,.2-.9.3-1.9.5-2.8C130.7,96.1,125.6,96.8,124.4,93.7Zm42.5-13.9c-3.3-1.7-6.1,1.1-7.2,2.8.3-.9.3-2,.6-2.9h-3.4q-1.35,9.45-3.3,18.3h3.9a37.39,37.39,0,0,1,.9-6.6c.8-5.1,2-10.7,7.9-9A24.37,24.37,0,0,0,166.9,79.8ZM68,79.7c-.1,0-.1.1-.1.3-.8,6.2-2,12.2-3.2,18.1h3.8q1.35-9.45,3.3-18.3H68Zm33.3-.4A10,10,0,0,0,94.6,82c-2,2.1-3.6,6.8-3.2,11.1.7,6.1,8.3,5.9,14.4,4.4.1-1.1.4-2,.5-3-2.5.9-6.9,2.2-9.4.6-1.9-1.2-2-4.3-1.3-7.1,4.1-.1,8.3-.1,12.4,0,.3-1.9,1-4,.4-5.9C107.5,79.8,104.5,79.1,101.3,79.3ZM105,86H96.1a5.27,5.27,0,0,1,5-4.4C103.8,81.5,105.8,82.6,105,86ZM87,79.7c-3.2-1.2-7.1.2-8.8,1.6,0,.1,0,.1-.1.1a.1.1,0,0,0,.1-.1h0a9,9,0,0,1,.3-1.6H75.2c-1.4,9-3,17.8-4.7,26.5h3.8A101.2,101.2,0,0,1,76,96.1c.9,3.3,6.5,2.7,8.9,1.4C89.8,94.8,93.6,82.2,87,79.7ZM84,94.6c-2,2.1-7,2.1-7.4-1.5-.2-1.6.4-3.2.7-4.8s.5-3.2.8-4.7c2-2.4,7.9-2.7,8.5,1.3C87,88.4,85.7,92.8,84,94.6Zm97-22.8c-.3,2.8-.8,5.6-1.3,8.2-9.3-2.9-15,3.9-14.9,12.3a6.58,6.58,0,0,0,1.3,4.4c1.8,2,6.8,2.5,9.3.8a5.35,5.35,0,0,0,1.3-1.3c.2-.3.6-1.1.7-.9-.1.9-.3,1.7-.4,2.7h3.4c.7-9.5,2.7-17.6,4.2-26.3H181ZM172.6,96c-2.6.1-3.8-1.5-3.9-4.1-.1-4.6,1.9-9.7,6-10.1a9.93,9.93,0,0,1,4.7.7C178.1,87.6,178.5,95.9,172.6,96ZM139.9,79.7c-.2,1-.5,2-.7,3,2.2-.6,9.2-2.3,9.9.7a6.36,6.36,0,0,1-.4,2.8c-6.3-.6-11.4.5-12.8,4.9-.9,3,.1,6,2,6.8,3.7,1.6,8.2-.2,9.8-2.7a12,12,0,0,0-.3,2.8h3.3a46,46,0,0,1,1-8.5c.4-2.4,1.2-4.8,1.1-6.9C152.4,77.9,144.4,79.6,139.9,79.7ZM146,94.5c-2,1.9-7.4,2.5-6.9-2.1.5-3.8,4.6-4.6,9.1-4.1C147.9,90.4,147.5,93.1,146,94.5Z" style="fill: #fff"/>
        </g>
      </g>
    </g>
  </g>
</svg>
