<svg xmlns="http://www.w3.org/2000/svg" viewBox="0 0 224.5 177.6">
  <title>itau</title>
  <g id="Layer_2" data-name="Layer 2">
    <g id="Layer_1-2" data-name="Layer 1">
      <g>
        <path d="M224.5,167.1A10.5,10.5,0,0,1,214,177.6H10.5A10.5,10.5,0,0,1,0,167.1V10.5A10.5,10.5,0,0,1,10.5,0H214a10.5,10.5,0,0,1,10.5,10.5Z" style="fill: #e57625"/>
        <path d="M78.9,38.1h65.9a16.56,16.56,0,0,1,16.5,16.5v65.8a15.57,15.57,0,0,1-4.9,11.6,15.92,15.92,0,0,1-11.6,4.8H78.9A15.92,15.92,0,0,1,67.2,132a16.26,16.26,0,0,1-4.8-11.6V54.6a15.92,15.92,0,0,1,4.8-11.7,16.32,16.32,0,0,1,11.7-4.8Z" style="fill: #263779"/>
        <path d="M137.9,94.1h5.3l6.6-6.7h-7.2l-4.7,6.7Zm-2,1.7h-7.7v14.3c0,3.8,1,6.7,2.8,8.5a9.08,9.08,0,0,0,6.6,2.4c3.8,0,6.7-1.5,8.4-4.5h.1v3.9h6.8V95.8h-7.7v14.4a5.42,5.42,0,0,1-.2,1.5,4.74,4.74,0,0,1-4.7,3.2c-3,0-4.5-2.1-4.5-6.2V95.8ZM116.3,104c-5,0-8.9.8-11.5,2.4a8,8,0,0,0-4.1,7.2,7.62,7.62,0,0,0,2.2,5.2,8.79,8.79,0,0,0,6.2,2.3,9.79,9.79,0,0,0,7.7-3.1h.2v2.6h7V106.1a11,11,0,0,0-2.5-7.6c-2-2.1-5-3.2-8.9-3.2a19,19,0,0,0-10,2.4l1.4,4.8a13.72,13.72,0,0,1,7.3-1.9c3.4,0,5,1.1,5,3.3v.1ZM97.6,95.8H92.9V87.4H85.5v8.4H82v5.7h3.5v9.9c0,3.4.6,5.9,2.1,7.4a8,8,0,0,0,6,2.3,12.65,12.65,0,0,0,4.1-.6l-.1-5.8a2.42,2.42,0,0,1-1.4.3,2.72,2.72,0,0,1-2.6-1.3,6.84,6.84,0,0,1-.6-3.4v-8.7h4.7V95.8ZM107.7,113c0-3,3-4.3,8.7-4.2v2.6l-.1,1.4a4.27,4.27,0,0,1-1.9,2.3,4.38,4.38,0,0,1-3.1,1.1c-2.3,0-3.6-1.1-3.6-3.2ZM70.6,87.4v33h7.8v-33Z" style="fill: #fcee21"/>
      </g>
    </g>
  </g>
</svg>
