<svg xmlns="http://www.w3.org/2000/svg" xmlns:xlink="http://www.w3.org/1999/xlink" viewBox="0 0 224.75 177.85">
  <defs>
    <linearGradient id="linear-gradient" x1="38.56" y1="-6868.3" x2="81.56" y2="-6868.3" gradientTransform="matrix(1, 0, 0, -1, 26.08, -6779.64)" gradientUnits="userSpaceOnUse">
      <stop offset="0" stop-color="#2e3192"/>
      <stop offset="1" stop-color="#0972ba"/>
    </linearGradient>
    <linearGradient id="linear-gradient-2" x1="86.62" y1="-6868.1" x2="129.62" y2="-6868.1" gradientTransform="matrix(1, 0, 0, -1, 26.08, -6779.64)" gradientUnits="userSpaceOnUse">
      <stop offset="0" stop-color="#763237"/>
      <stop offset="1" stop-color="#ec2127"/>
    </linearGradient>
    <linearGradient id="linear-gradient-3" x1="134.74" y1="-6868.14" x2="177.74" y2="-6868.14" gradientTransform="matrix(1, 0, 0, -1, 26.08, -6779.64)" gradientUnits="userSpaceOnUse">
      <stop offset="0" stop-color="#007346"/>
      <stop offset="1" stop-color="#59ae4b"/>
    </linearGradient>
    <linearGradient id="linear-gradient-4" x1="143.84" y1="-6874.89" x2="159" y2="-6874.89" xlink:href="#linear-gradient-3"/>
    <linearGradient id="linear-gradient-5" x1="143.84" y1="-6860.84" x2="157.41" y2="-6860.84" xlink:href="#linear-gradient-3"/>
  </defs>
  <title>jcb</title>
  <g id="Layer_2" data-name="Layer 2">
    <g id="Layer_1-2" data-name="Layer 1">
      <path d="M224.63,167.23a10.51,10.51,0,0,1-10.5,10.5H10.62a10.51,10.51,0,0,1-10.5-10.5V10.62A10.51,10.51,0,0,1,10.62.12H214.13a10.51,10.51,0,0,1,10.5,10.5Z" style="fill: #f0efef;stroke: #dddddc;stroke-miterlimit: 10;stroke-width: 0.25px"/>
      <g>
        <path d="M154.42,26.52a27.13,27.13,0,0,0-11.8,2.71V26.52l-36.3-.2A27.71,27.71,0,0,0,94.42,29v-2.7l-36.2-.2a26.63,26.63,0,0,0-26.8,26.3l-.2,72.4v26.3l36.1.1a26.82,26.82,0,0,0,12-2.8v2.8l36.1.1a26.82,26.82,0,0,0,12-2.8v2.8l36.1.1a26.63,26.63,0,0,0,26.8-26.3l.3-98.7Z" style="fill: #fff"/>
        <path d="M67.82,36.23h-9.6a16.62,16.62,0,0,0-16.8,16.39l-.2,44.21c5.7,3.1,10,4.6,13.4,4.6,10.9,0,10.9-7.4,10.9-7.4l.1-21.9,15.2.1s-.2,13.1-.2,20.4c0,8.4-7.6,14.3-20.6,14.3a60.09,60.09,0,0,1-18.79-2.8L41.12,125v16.4l26.21.1a16.69,16.69,0,0,0,16.8-16.4l.3-88.7Z" style="fill: url(#linear-gradient)"/>
        <path d="M115.93,36.43h-9.6a16.63,16.63,0,0,0-16.81,16.4l-.09,26.1c3.69-5.8,11.19-7.1,19.09-7.1a71.92,71.92,0,0,1,19,2.4v6.29s-4.09-3.5-15.4-3.5C99,77,99.43,88.52,99.43,88.52h0c-.1,2.8.3,12.9,12.69,12.6,11.31-.2,15.4-3.39,15.4-3.39V104a74.83,74.83,0,0,1-19,2.3c-7.5,0-15.19-1-19-6.8l-.09,25.4v16.4l26.2.1a16.69,16.69,0,0,0,16.8-16.4l.3-88.7Z" style="fill: url(#linear-gradient-2)"/>
        <g>
          <path d="M164,36.52h-9.6a16.69,16.69,0,0,0-16.8,16.4l-.1,19.9,25.8.1s10.6-.5,10.6,7.4-7.7,8.5-7.7,8.5,9.61.9,9.61,8.4-7,8.6-10.7,8.6c-3,0-21.8-.1-27.8-.1l-.1,19.4v16.4l26.2.1a16.63,16.63,0,0,0,16.8-16.4l.3-88.7Z" style="fill: url(#linear-gradient-3)"/>
          <path d="M146.52,100.33s9.11.1,11.2.1c3.11,0,3.9-2.8,4-4.3v-.7a4.13,4.13,0,0,0-3.89-4.3h-11.2Z" style="fill: url(#linear-gradient-4)"/>
          <path d="M160.22,82.12v-.7a3.81,3.81,0,0,0-3.5-4h-10v8.5s8.11.1,10,.1C159.42,86,160.22,83.43,160.22,82.12Z" style="fill: url(#linear-gradient-5)"/>
        </g>
      </g>
    </g>
  </g>
</svg>
