<svg xmlns="http://www.w3.org/2000/svg" viewBox="0 0 224.5 177.6">
  <title>master</title>
  <g id="Layer_2" data-name="Layer 2">
    <g id="Layer_1-2" data-name="Layer 1">
      <g>
        <path d="M224.5,167.1A10.5,10.5,0,0,1,214,177.6H10.5A10.5,10.5,0,0,1,0,167.1V10.5A10.5,10.5,0,0,1,10.5,0H214a10.5,10.5,0,0,1,10.5,10.5Z" style="fill: #27245e"/>
        <g>
          <g>
            <path d="M125.1,89.8A40.6,40.6,0,1,1,84.5,49.2,40.63,40.63,0,0,1,125.1,89.8Z" style="fill: #ed1b2e"/>
            <path d="M139,49.1a40.67,40.67,0,0,0-27.3,10.5,41.67,41.67,0,0,0-4.1,4.3h8.2a42.48,42.48,0,0,1,3.1,4.3H104.5a35.5,35.5,0,0,0-2.3,4.3h19.1a32,32,0,0,1,1.7,4.3H100.5a30.3,30.3,0,0,0-1.2,4.3h24.9a41.16,41.16,0,0,1,.9,8.6,39.21,39.21,0,0,1-2.1,12.9H100.5c.5,1.5,1.1,2.9,1.7,4.3h19.1c-.7,1.5-1.5,2.9-2.3,4.3H104.6a42.48,42.48,0,0,0,3.1,4.3h8.2a41.67,41.67,0,0,1-4.1,4.3A40.62,40.62,0,1,0,139,49.1Z" style="fill: #fcb131"/>
          </g>
          <g>
            <g>
              <path d="M75,94.2a4.14,4.14,0,0,0-1-.1c-2.5,0-3.8.9-3.8,2.6a1.55,1.55,0,0,0,1.6,1.7C73.6,98.4,74.9,96.7,75,94.2Zm3.2,7.5H74.5l.1-1.7a5.41,5.41,0,0,1-4.6,2c-2.4,0-4-1.9-4-4.6,0-4.1,2.9-6.5,7.7-6.5a12.13,12.13,0,0,1,1.8.1,8.92,8.92,0,0,0,.2-1.1c0-1.1-.8-1.5-2.8-1.5a13.76,13.76,0,0,0-4.7.8c0-.3.6-3.8.6-3.8a18.94,18.94,0,0,1,5.3-.9c3.8,0,5.8,1.7,5.8,4.9a15.32,15.32,0,0,1-.4,3.3C79.1,95.2,78.3,100.4,78.2,101.7Z" style="fill: #003473"/>
              <polygon points="64.1 101.7 59.7 101.7 62.2 85.8 56.6 101.7 53.6 101.7 53.2 85.9 50.5 101.7 46.4 101.7 49.8 81.1 56.2 81.1 56.6 92.6 60.4 81.1 67.5 81.1 64.1 101.7" style="fill: #003473"/>
              <path d="M144.5,94.2a4.14,4.14,0,0,0-1-.1c-2.5,0-3.8.9-3.8,2.6a1.55,1.55,0,0,0,1.6,1.7C143.1,98.4,144.4,96.7,144.5,94.2Zm3.2,7.5H144l.1-1.7a5.41,5.41,0,0,1-4.6,2c-2.4,0-4-1.9-4-4.6,0-4.1,2.9-6.5,7.7-6.5a12.13,12.13,0,0,1,1.8.1,8.92,8.92,0,0,0,.2-1.1c0-1.1-.8-1.5-2.8-1.5a13.76,13.76,0,0,0-4.7.8c0-.3.6-3.8.6-3.8a18.94,18.94,0,0,1,5.3-.9c3.8,0,5.8,1.7,5.8,4.9a15.32,15.32,0,0,1-.4,3.3C148.6,95.2,147.8,100.4,147.7,101.7Z" style="fill: #003473"/>
              <path d="M97.8,101.4a9.63,9.63,0,0,1-3.2.5c-2.3,0-3.5-1.3-3.5-3.7a43.66,43.66,0,0,1,.6-4.5c.3-1.6,1.9-11.4,1.9-11.4H98l-.5,2.5h2.6l-.6,4H96.8c-.5,3.2-1.2,7.2-1.2,7.7,0,.9.5,1.2,1.5,1.2a2.17,2.17,0,0,0,1.2-.2Z" style="fill: #003473"/>
              <path d="M111.2,101.3a14.08,14.08,0,0,1-4.5.7c-4.9,0-7.5-2.6-7.5-7.5,0-5.7,3.3-9.9,7.7-9.9,3.6,0,5.9,2.4,5.9,6.1a23.79,23.79,0,0,1-.5,4.1h-8.7c-.3,2.4,1.3,3.4,3.8,3.4a9.72,9.72,0,0,0,4.6-1.1Zm-2.4-9.9c0-.4.5-3-2-3-1.4,0-2.4,1.1-2.8,3Z" style="fill: #003473"/>
              <path d="M80.8,90.2c0,2.1,1,3.6,3.4,4.7,1.8.8,2.1,1.1,2.1,1.8,0,1-.8,1.5-2.5,1.5a12.05,12.05,0,0,1-4-.7s-.6,3.7-.6,3.9a23.4,23.4,0,0,0,4.6.5c4.7,0,6.8-1.8,6.8-5.6a4.62,4.62,0,0,0-3.1-4.7c-1.8-.8-2.1-1-2.1-1.8s.7-1.4,2.2-1.4a20,20,0,0,1,3.2.3l.6-3.9a26.62,26.62,0,0,0-3.9-.3C82.5,84.5,80.8,87.1,80.8,90.2Z" style="fill: #003473"/>
              <path d="M132.7,85a8,8,0,0,1,3.9,1.1l.7-4.5c-.6-.3-2.9-1.7-4.9-1.7a8.84,8.84,0,0,0-7.2,3.9c-2.6-.8-3.6.9-4.9,2.6l-1.1.3a4.88,4.88,0,0,0,.1-1.7h-4.1c-.6,5.2-1.5,10.4-2.3,15.6l-.2,1.1h4.4c.7-4.8,1.1-7.9,1.4-9.9l1.7-.9c.2-.9,1-1.2,2.6-1.2a18.7,18.7,0,0,0-.3,3.4c0,5.5,3,8.9,7.7,8.9a15.46,15.46,0,0,0,3.9-.6l.8-4.7a9.34,9.34,0,0,1-3.7,1.1c-2.6,0-4.1-1.9-4.1-5C127.1,88.2,129.4,85,132.7,85Z" style="fill: #003473"/>
              <path d="M170,81.1l-1,6c-1.2-1.6-2.5-2.7-4.2-2.7-2.2,0-4.3,1.7-5.6,4.2-1.8-.4-3.8-1-3.8-1h0c.1-1.4.2-2.2.2-2.5h-4.1c-.6,5.2-1.5,10.4-2.3,15.6l-.2,1.1h4.4c.6-3.9,1.1-7.1,1.4-9.6,1.5-1.4,2.3-2.6,3.8-2.5a13.71,13.71,0,0,0-1.1,5.4c0,4.2,2.1,7,5.3,7a5.54,5.54,0,0,0,4.1-1.8l-.2,1.6h4.2l3.4-20.6H170Zm-5.5,16.7c-1.5,0-2.3-1.1-2.3-3.3,0-3.3,1.4-5.6,3.4-5.6,1.5,0,2.3,1.2,2.3,3.3C168,95.5,166.6,97.8,164.5,97.8Z" style="fill: #003473"/>
            </g>
            <g>
              <polygon points="65.4 100.5 60.9 100.5 63.5 84.6 57.8 100.5 54.8 100.5 54.4 84.7 51.8 100.5 47.7 100.5 51.1 79.8 57.5 79.8 57.6 92.6 61.9 79.8 68.8 79.8 65.4 100.5" style="fill: #fff"/>
              <path d="M76.2,93a4.14,4.14,0,0,0-1-.1c-2.5,0-3.8.9-3.8,2.6A1.55,1.55,0,0,0,73,97.2C74.8,97.2,76.1,95.5,76.2,93Zm3.2,7.5H75.7l.1-1.7a5.41,5.41,0,0,1-4.6,2c-2.4,0-4-1.9-4-4.6,0-4.1,2.8-6.5,7.7-6.5a12.13,12.13,0,0,1,1.8.1,8.92,8.92,0,0,0,.2-1.1c0-1.1-.8-1.5-2.8-1.5a13.76,13.76,0,0,0-4.7.8c0-.3.6-3.8.6-3.8a18.94,18.94,0,0,1,5.3-.9c3.8,0,5.8,1.7,5.8,4.9a15.32,15.32,0,0,1-.4,3.3C80.4,94,79.5,99.2,79.4,100.5Z" style="fill: #fff"/>
              <path d="M138.6,80.4l-.7,4.5a8.3,8.3,0,0,0-3.9-1.1c-3.3,0-5.6,3.2-5.6,7.7,0,3.1,1.6,5,4.1,5a8,8,0,0,0,3.8-1.1l-.8,4.7a15.46,15.46,0,0,1-3.9.6c-4.8,0-7.7-3.4-7.7-8.9,0-7.4,4.1-12.5,9.9-12.5A13.52,13.52,0,0,1,138.6,80.4Z" style="fill: #fff"/>
              <path d="M145.7,93a4.14,4.14,0,0,0-1-.1c-2.5,0-3.8.9-3.8,2.6a1.55,1.55,0,0,0,1.6,1.7C144.4,97.2,145.7,95.5,145.7,93Zm3.2,7.5h-3.7l.1-1.7a5.41,5.41,0,0,1-4.6,2c-2.4,0-4-1.9-4-4.6,0-4.1,2.8-6.5,7.7-6.5a12.13,12.13,0,0,1,1.8.1,8.92,8.92,0,0,0,.2-1.1c0-1.1-.8-1.5-2.8-1.5a13.76,13.76,0,0,0-4.7.8c0-.3.6-3.8.6-3.8a18.94,18.94,0,0,1,5.3-.9c3.8,0,5.8,1.7,5.8,4.9a15.32,15.32,0,0,1-.4,3.3C149.9,94,149.1,99.2,148.9,100.5Z" style="fill: #fff"/>
              <path d="M99,100.2a9.27,9.27,0,0,1-3.2.5c-2.3,0-3.5-1.3-3.5-3.7a43.66,43.66,0,0,1,.6-4.5c.3-1.6,1.9-11.4,1.9-11.4h4.4l-.5,2.5H101l-.6,4H98.2c-.5,3.2-1.2,7.2-1.2,7.7,0,.9.5,1.2,1.5,1.2a2.17,2.17,0,0,0,1.2-.2Z" style="fill: #fff"/>
              <path d="M112.5,100.1a14.08,14.08,0,0,1-4.5.7c-4.9,0-7.5-2.6-7.5-7.5,0-5.7,3.3-10,7.7-10,3.6,0,5.9,2.4,5.9,6.1a23.79,23.79,0,0,1-.5,4.1h-8.7c-.3,2.4,1.3,3.4,3.8,3.4a9.72,9.72,0,0,0,4.6-1.1Zm-2.5-10c0-.4.5-3-2-3-1.4,0-2.4,1.1-2.8,3Z" style="fill: #fff"/>
              <path d="M82.1,89c0,2.1,1,3.6,3.4,4.7,1.8.8,2.1,1.1,2.1,1.9,0,1-.8,1.5-2.5,1.5a12.05,12.05,0,0,1-4-.7s-.6,3.7-.6,3.9a23.4,23.4,0,0,0,4.6.5c4.7,0,6.8-1.8,6.8-5.6a4.62,4.62,0,0,0-3.1-4.7c-1.8-.9-2.1-1-2.1-1.8s.7-1.4,2.2-1.4a20,20,0,0,1,3.2.3l.6-3.9a26.62,26.62,0,0,0-3.9-.3C83.8,83.3,82.1,85.9,82.1,89Z" style="fill: #fff"/>
              <path d="M172.3,100.5h-4.2l.2-1.6a5.3,5.3,0,0,1-4.1,1.9c-3.2,0-5.3-2.8-5.3-7,0-5.6,3.3-10.3,7.2-10.3a5,5,0,0,1,4.2,2.3l1-6h4.4Zm-6.5-3.9c2.1,0,3.5-2.3,3.5-5.7,0-2.1-.8-3.3-2.3-3.3-2,0-3.4,2.3-3.4,5.6C163.5,95.5,164.3,96.6,165.8,96.6Z" style="fill: #fff"/>
              <path d="M152.9,83.7c-.6,5.2-1.5,10.4-2.3,15.6l-.2,1.1h4.4c1.6-10.3,2-12.3,4.4-12a16.1,16.1,0,0,1,1.7-4.9c-1.8-.4-2.9.7-4.2,2.6a24.18,24.18,0,0,0,.3-2.5h-4.1Z" style="fill: #fff"/>
              <path d="M116.6,83.7c-.6,5.2-1.5,10.4-2.3,15.6l-.2,1.1h4.4c1.6-10.3,2-12.3,4.4-12a16.1,16.1,0,0,1,1.7-4.9c-1.8-.4-2.9.7-4.2,2.6a24.18,24.18,0,0,0,.3-2.5h-4.1Z" style="fill: #fff"/>
              <path d="M174.2,99.1a1.3,1.3,0,1,1,1.3,1.3A1.21,1.21,0,0,1,174.2,99.1Zm1.3,1a1,1,0,1,0-1-1A1,1,0,0,0,175.5,100.1Zm-.1-.4h-.3V98.5h.5a.35.35,0,0,1,.4.4c0,.1-.1.3-.2.3l.2.5h-.3l-.2-.5h-.2v.5Zm0-.6h.3l.1-.1a.1.1,0,0,0-.1-.1h-.3Z" style="fill: #fff"/>
            </g>
          </g>
        </g>
      </g>
    </g>
  </g>
</svg>
