<svg xmlns="http://www.w3.org/2000/svg" viewBox="0 0 224.5 177.6">
  <title>visa</title>
  <g id="Layer_2" data-name="Layer 2">
    <g id="Layer_1-2" data-name="Layer 1">
      <g>
        <path d="M224.5,167.1A10.5,10.5,0,0,1,214,177.6H10.5A10.5,10.5,0,0,1,0,167.1V10.5A10.5,10.5,0,0,1,10.5,0H214a10.5,10.5,0,0,1,10.5,10.5Z" style="fill: #0059a0"/>
        <g>
          <polygon points="85.4 112.3 93 67.6 105.2 67.6 97.6 112.3 85.4 112.3" style="fill: #fff"/>
          <path d="M141.8,68.7a31.44,31.44,0,0,0-10.9-1.9c-12.1,0-20.5,6.1-20.6,14.8-.1,6.4,6.1,10,10.7,12.2s6.3,3.6,6.3,5.5c0,3-3.8,4.4-7.3,4.4a26.56,26.56,0,0,1-11.5-2.3l-1.6-.7-1.7,10a40.52,40.52,0,0,0,13.6,2.4c12.8,0,21.1-6,21.2-15.3,0-5.1-3.2-9-10.2-12.2-4.3-2.1-6.9-3.5-6.9-5.6,0-1.9,2.2-3.8,7-3.8a21.64,21.64,0,0,1,9.1,1.7l1.1.5,1.7-9.7Z" style="fill: #fff"/>
          <path d="M173.1,67.6h-9.4c-2.9,0-5.1.8-6.4,3.7l-18.1,41H152s2.1-5.5,2.6-6.7h15.6c.4,1.6,1.5,6.7,1.5,6.7H183l-9.9-44.7ZM158,96.5c1-2.6,4.9-12.5,4.9-12.5s1-2.6,1.6-4.3l.8,3.9s2.3,10.7,2.8,12.9Z" style="fill: #fff"/>
          <path d="M75.1,67.6,63.2,98.1l-1.3-6.2C59.7,84.7,52.8,77,45,73.1l10.9,39.1H68.8L88,67.5H75.1Z" style="fill: #fff"/>
          <path d="M52.1,67.6H32.4l-.1.9c15.3,3.7,25.4,12.7,29.6,23.4L57.6,71.3c-.7-2.8-2.8-3.6-5.5-3.7Z" style="fill: #f9a61c"/>
        </g>
      </g>
    </g>
  </g>
</svg>
